HIERARCHY
ROOT Hips
{
  OFFSET 263.056 91.6644 -274.608
  CHANNELS 6 Xposition Yposition Zposition Zrotation Xrotation Yrotation
  JOINT LeftUpLeg
  {
    OFFSET 8.64259 1.95398 -2.38835
    CHANNELS 3 Zrotation Xrotation Yrotation
    JOINT LeftLeg
    {
      OFFSET 43.7702 0 0
      CHANNELS 3 Zrotation Xrotation Yrotation
      JOINT LeftFoot
      {
        OFFSET 40.6238 0 0
        CHANNELS 3 Zrotation Xrotation Yrotation
        JOINT LeftToeBase
        {
          OFFSET 12.7242 0 0
          CHANNELS 3 Zrotation Xrotation Yrotation
          End Site
          {
            OFFSET 0 0 0
          }
        }
      }
    }
  }
  JOINT RightUpLeg
  {
    OFFSET -8.2249 1.95398 -2.59336
    CHANNELS 3 Zrotation Xrotation Yrotation
    JOINT RightLeg
    {
      OFFSET 43.5653 0 0
      CHANNELS 3 Zrotation Xrotation Yrotation
      JOINT RightFoot
      {
        OFFSET 40.6238 0 0
        CHANNELS 3 Zrotation Xrotation Yrotation
        JOINT RightToeBase
        {
          OFFSET 12.7242 0 0
          CHANNELS 3 Zrotation Xrotation Yrotation
          End Site
          {
            OFFSET 0 0 0
          }
        }
      }
    }
  }
  JOINT Spine
  {
    OFFSET 0.165834 0.87714 6.61349
    CHANNELS 3 Zrotation Xrotation Yrotation
    JOINT Spine1
    {
      OFFSET 7.38963 1.71661e-005 0
      CHANNELS 3 Zrotation Xrotation Yrotation
      JOINT Spine2
      {
        OFFSET 11.9445 1.14441e-005 0
        CHANNELS 3 Zrotation Xrotation Yrotation
        JOINT Spine3
        {
          OFFSET 14.7254 4.19617e-005 0
          CHANNELS 3 Zrotation Xrotation Yrotation
          JOINT Spine4
          {
            OFFSET 10.9679 0 0
            CHANNELS 3 Zrotation Xrotation Yrotation
            JOINT RightShoulder
            {
              OFFSET 2.46616 -1.6653 3.69651
              CHANNELS 3 Zrotation Xrotation Yrotation
              JOINT RightArm
              {
                OFFSET 13.0012 0 0
                CHANNELS 3 Zrotation Xrotation Yrotation
                JOINT RightForeArm
                {
                  OFFSET 28.7848 1.52588e-005 0
                  CHANNELS 3 Zrotation Xrotation Yrotation
                  JOINT RightHand
                  {
                    OFFSET 26.5688 1.52588e-005 0
                    CHANNELS 3 Zrotation Xrotation Yrotation
                    End Site
                    {
                      OFFSET 0 0 0
                    }
                  }
                }
              }
            }
            JOINT LeftShoulder
            {
              OFFSET 2.38034 -1.29275 -3.7523
              CHANNELS 3 Zrotation Xrotation Yrotation
              JOINT LeftArm
              {
                OFFSET 16.3182 6.10352e-005 0
                CHANNELS 3 Zrotation Xrotation Yrotation
                JOINT LeftForeArm
                {
                  OFFSET 27.0901 0 0
                  CHANNELS 3 Zrotation Xrotation Yrotation
                  JOINT LeftHand
                  {
                    OFFSET 24.5451 1.52588e-005 0
                    CHANNELS 3 Zrotation Xrotation Yrotation
                    End Site
                    {
                      OFFSET 0 0 0
                    }
                  }
                }
              }
            }
            JOINT Neck
            {
              OFFSET 5.0226 -0.0266342 0
              CHANNELS 3 Zrotation Xrotation Yrotation
              JOINT Head
              {
                OFFSET 6.69364 2.86102e-005 0
                CHANNELS 3 Zrotation Xrotation Yrotation
                End Site
                {
                  OFFSET 0 0 0
                }
              }
            }
          }
        }
      }
    }
  }
}
MOTION
Frames:	14
Frame Time:	0.0416667
-84.4457 94.9178 -106.365 91.8996 -36.8503 86.8545 -174.434 -3.48026 83.6353 -19.5026 20.7005 -1.6254 64.747 10.5967 14.1347 46.5957 17.2952 -11.4667 -179.949 21.7675 86.8182 -4.24318 7.88256 -1.33062 61.988 -1.24169 -0.653444 55.195 2.3543 4.15089 -0.777271 7.55026 -89.5971 11.779 -1.35647 0.94689 0.108359 -1.31347 1.00567 -22.4315 -1.57831 0.495388 -2.41881 -1.57831 0.495379 79.983 -54.9717 -114.022 29.5067 -7.04433 22.9723 -7.08464 -16.1788 -34.1687 -1.65087 -0.283708 3.09567 -99.2537 -38.6997 60.5558 -22.1755 3.07778 1.77434 10.3969 3.21341 -58.2088 12.323 0.86996 3.06651 -7.04446 -4.28121 0.18832 12.3223 -4.1602 0.765108 
-77.9422 93.2338 -100.593 92.4174 -35.6942 86.7416 -174.708 -7.17673 84.43 -24.1145 22.9004 -0.605904 63.9151 9.17512 12.2996 52.8487 24.3777 -6.21716 -179.933 23.717 86.8637 -5.85145 9.36853 -0.996261 65.1914 -1.9875 -1.10442 58.1318 3.12765 6.71957 -0.942622 7.56366 -89.5629 11.7529 -1.66933 1.04816 0.0825141 -1.62159 1.12062 -22.4601 -1.90715 0.497869 -2.44745 -1.90715 0.497869 79.8853 -55.0728 -114.123 30.3376 -6.28454 25.1968 -6.7544 -16.8571 -31.6622 -2.3964 -0.32474 2.56542 -99.089 -38.6432 60.7994 -20.7692 1.15745 0.997963 10.3285 1.43041 -63.859 12.1314 0.788923 2.53494 -6.50514 -4.217 0.402984 11.9866 -4.14193 0.564795 
-70.886 92.0037 -94.5072 94.4247 -34.3076 90.7227 -174.288 -8.77937 88.8805 -33.4651 26.718 1.07645 59.2896 4.65045 10.4454 60.4699 33.0927 -2.87043 179.485 25.9797 88.8686 -19.9577 4.005 -0.149102 54.7902 1.62804 1.3826 42.597 1.17647 5.58508 -1.05351 7.6533 -89.9725 11.5714 -2.0829 0.269456 -0.0978865 -2.06902 0.360903 -22.6462 -2.06754 -0.369271 -2.63358 -2.06755 -0.369273 79.9623 -54.982 -114.048 29.8534 -5.62055 26.3432 -7.04699 -17.0392 -30.8328 -2.25735 -0.321626 2.6078 -100.079 -40.3726 59.9803 -20.8163 2.28869 1.97773 11.9015 2.31721 -64.6792 13.9903 0.927826 2.70441 -6.92206 -4.24648 1.91056 11.5729 -4.38881 -0.150625 
-64.2676 91.1425 -89.4289 97.0925 -36.5993 96.8538 -172.881 -3.31108 94.8975 -49.1621 24.804 1.1577 47.1638 -8.48097 2.04553 54.3995 30.4788 6.50849 179.314 26.9148 94.5742 -35.4043 4.82235 0.797014 62.6566 -0.911994 -0.465865 21.3612 -1.99636 12.5331 -0.726744 7.86637 -90.5291 11.1323 -1.69202 -0.886389 -0.537878 -1.72938 -0.811053 -23.0765 -1.34744 -1.35397 -3.06389 -1.34742 -1.35396 79.1278 -54.492 -115.403 28.2103 -5.78283 24.3919 -6.67614 -16.7867 -31.0096 -3.04773 -0.359284 2.57351 -100.236 -41.612 60.2813 -24.2435 3.22848 2.57858 8.05553 1.23107 -58.1615 11.7375 0.789404 2.73445 -7.89397 -4.33313 2.99657 11.5887 -4.58748 -0.486552 
-59.0992 91.9866 -84.3828 97.3674 -36.1693 96.3537 -174.636 6.03866 94.5325 -61.1275 15.0962 1.68471 45.6813 -8.65603 3.62324 41.5403 15.4893 8.943 178.823 23.6769 94.9987 -39.4432 4.6079 0.567963 68.6057 -2.40498 -1.26797 23.5666 -1.26054 8.58294 -0.652031 7.96774 -90.3656 10.9349 -1.46727 -0.588408 -0.73533 -1.49173 -0.523259 -23.2744 -1.2226 -1.00222 -3.26176 -1.22259 -1.00222 79.5773 -54.466 -114.779 27.4815 -5.77842 19.398 -7.50382 -15.0631 -35.3437 -7.63203 -0.602204 2.97985 -101.027 -41.7184 59.0914 -26.696 6.30058 3.07226 8.52371 5.46321 -48.8888 13.3658 0.984646 3.37225 -8.48601 -5.32774 1.6649 12.4712 -5.54633 -1.00055 
-54.1793 93.7272 -79.8145 97.2297 -37.7012 95.3119 -174.524 14.1583 92.8357 -59.1807 8.51633 1.44665 50.7156 -4.12402 6.24066 45.1202 18.9704 4.34508 179.36 18.2846 95.1838 -37.1813 5.02893 -0.532756 70.2915 -3.05906 -1.59089 26.3162 -0.891638 8.76117 -0.327214 7.99 -90.152 10.8934 -0.721659 -0.23418 -0.777391 -0.731286 -0.202192 -23.3136 -0.617941 -0.440252 -3.30094 -0.617938 -0.440248 80.2462 -53.2804 -114.272 27.499 -6.27711 15.4402 -8.11138 -11.0648 -44.4473 -12.1648 -0.927166 3.697 -101.159 -41.8341 58.9374 -30.0368 8.28172 4.6867 6.74993 8.17719 -39.8209 11.753 0.953569 4.06301 -9.36861 -6.42637 0.465306 12.9674 -6.61839 -1.38417 
-49.5284 94.848 -75.6349 96.7438 -39.4412 94.3378 -172.948 18.9423 91.9658 -47.3175 1.31899 0.537803 57.497 1.54478 7.02354 46.2641 20.7089 6.00423 -179.787 13.404 95.4489 -34.694 4.25065 -1.89355 71.6943 -3.91514 -2.0023 29.4738 -0.387824 7.56968 0.00368945 7.95405 -89.9317 10.9658 0.0390211 0.132179 -0.705197 0.0447904 0.130325 -23.2403 -0.00251701 0.137794 -3.22765 -0.00251919 0.137788 80.7861 -52.1032 -113.931 26.9086 -7.50897 11.6864 -9.0696 -6.9342 -53.7384 -13.1223 -0.861156 2.49944 -100.631 -41.1233 59.444 -34.6629 8.52782 9.45304 6.04187 9.74497 -35.6876 10.9027 0.98204 4.82748 -10.0401 -7.44263 -1.34128 13.7882 -7.48252 -0.982468 
-44.7719 95.206 -72.201 96.6192 -40.4486 94.0732 -172.153 20.8265 91.642 -30.2015 1.47905 -0.854291 58.0622 2.08363 8.01603 49.5704 24.9252 6.88459 -179.87 9.06832 95.2245 -33.6834 3.76508 -2.48351 73.7579 -4.67104 -2.30396 31.6521 -0.116396 7.82297 0.249137 7.993 -89.8632 10.8873 0.559307 0.219491 -0.783513 0.568425 0.194658 -23.3193 0.467494 0.377442 -3.30662 0.467483 0.377443 82.017 -49.6981 -113.009 26.5049 -8.34461 7.88619 -11.366 -5.27449 -62.4831 -14.1476 -0.910081 2.40996 -101.201 -41.4651 58.7045 -38.0962 9.15582 15.2395 4.74819 9.28651 -34.4998 11.2006 0.892861 3.87829 -8.7666 -8.20512 -0.99086 12.7863 -8.34668 -1.81594 
-39.803 95.1244 -69.1112 96.2542 -40.1505 94.3196 -173.343 21.6802 91.6752 -13.4495 2.96461 -0.557357 59.4618 1.84236 5.72608 46.2101 21.755 10.2859 179.739 4.33947 95.4384 -31.7531 4.4776 -2.34227 75.6538 -5.79517 -2.757 34.442 0.224578 8.73142 0.369552 8.00001 -89.8861 10.8736 0.788515 0.152418 -0.797112 0.794446 0.117559 -23.3339 0.706236 0.382353 -3.32123 0.706245 0.382362 81.994 -49.5006 -113.117 22.7863 -9.18219 3.77603 -13.1097 -4.91682 -67.7038 -14.822 -1.03636 3.16906 -100.116 -41.7056 60.5111 -41.5182 9.39476 19.4441 3.6933 8.98321 -33.4711 11.0629 0.883046 3.87718 -8.59294 -8.98928 -1.52176 13.1646 -9.04637 -1.49637 
-34.6941 94.6032 -66.1425 96.4307 -39.983 95.3332 -174.469 22.5058 91.9488 -4.76866 2.16616 0.600297 60.5966 2.35116 7.79571 47.6195 23.294 9.38661 179.129 0.00222249 95.3164 -31.047 5.58325 -2.03673 76.5001 -6.4581 -3.01066 39.438 1.02239 11.1952 0.628601 8.05695 -89.9927 10.761 1.25508 -0.101584 -0.909404 1.24941 -0.156736 -23.4492 1.22758 0.280377 -3.43654 1.22757 0.280368 81.7768 -50.2966 -113.147 18.2249 -8.81873 0.744069 -15.108 -5.52101 -69.5366 -13.841 -0.828713 1.80105 -99.3718 -41.5592 61.6181 -44.1057 7.50037 22.4577 3.49283 8.1216 -32.0699 10.3141 0.791795 3.55572 -8.61699 -10.02 -1.68425 13.7789 -10.1454 -2.03788 
-29.2812 93.314 -63.0344 96.2848 -39.8159 95.1033 -173.803 23.3702 91.4469 -6.48237 -2.17009 -0.128925 60.4953 2.94504 6.9001 46.8709 22.2143 8.90153 178.883 -1.85451 94.7809 -35.0359 5.63031 -2.75014 77.1027 -6.9724 -3.20929 46.5595 2.04605 10.1232 0.82614 8.09738 -89.9566 10.6805 1.66521 -0.0658798 -0.989387 1.6607 -0.139131 -23.5327 1.60801 0.437771 -3.52005 1.60799 0.437752 80.057 -51.9459 -115.047 13.913 -7.52221 -0.665267 -14.736 -5.85067 -68.6509 -13.7696 -0.869481 2.24312 -98.0751 -41.7948 63.7666 -45.107 6.48517 23.98 3.32059 7.79585 -30.7483 9.61551 0.771489 3.82612 -8.32324 -10.8988 -2.51875 13.7726 -10.9753 -2.20464 
-23.4356 91.9415 -59.8302 95.789 -38.8091 93.7869 -172.814 24.5439 90.4503 -13.4538 -1.42209 -1.74334 56.2101 -1.57947 3.00063 46.2505 20.14 3.78728 177.248 -1.26026 91.7385 -44.367 4.52163 -2.73998 72.1317 -5.33052 -2.68562 54.9088 3.26331 9.41709 0.904234 8.14834 -89.7749 10.5775 1.90443 0.277461 -1.09202 1.91481 0.193341 -23.6368 1.73297 0.837158 -3.62413 1.73297 0.837148 78.2554 -53.6631 -116.956 11.9634 -6.0377 0.161743 -14.2473 -6.5299 -66.9062 -14.9856 -1.06055 3.27115 -97.5337 -41.4946 64.5077 -44.864 5.39662 24.9571 3.57719 7.25921 -30.6216 9.46914 0.847145 4.6564 -8.43142 -11.86 -4.85185 14.9192 -11.7041 -1.67654 
-18.6065 91.1702 -57.0541 95.2949 -36.0084 90.7933 -172.165 27.3812 87.5782 -23.5331 4.3833 -3.25806 55.2523 -3.3049 3.9737 39.0528 11.2373 -2.28614 175.009 8.71187 90.2683 -60.7435 4.69575 -2.56632 54.9966 -0.745805 -0.188893 50.8936 3.13732 12.4707 0.797203 8.38889 -89.4398 10.0871 1.8438 0.957542 -1.58282 1.88414 0.875443 -24.1223 1.4708 1.46744 -4.10964 1.4708 1.46744 76.712 -54.8321 -118.647 10.9698 -4.06872 0.48766 -11.6768 -7.38858 -62.2441 -15.3051 -1.13072 3.63903 -98.6054 -40.8087 62.5171 -43.1598 6.77101 22.7458 2.45418 6.72814 -29.0755 10.626 0.825077 3.66031 -7.17247 -13.4511 -6.59934 14.1938 -13.0771 -1.7366 
-14.7166 91.0851 -55.3173 93.7417 -33.9147 88.6829 -170.954 28.3116 85.5696 -28.2963 7.21503 -4.73951 58.2628 -0.184228 6.36534 36.1972 8.1361 -4.70412 173.775 21.3563 87.6231 -74.6139 6.56477 -2.36044 50.4184 -0.187275 0.113772 35.8662 0.445764 4.83936 0.716119 8.61087 -89.3417 9.64213 1.72511 1.17175 -2.02813 1.775 1.09467 -24.5648 1.29322 1.63602 -4.55216 1.29324 1.63603 75.9515 -54.0804 -120.019 11.219 -2.08087 -0.10553 -11.6671 -9.2135 -55.897 -14.6288 -0.797314 1.24991 -98.6365 -40.1371 62.1841 -40.8459 7.93274 18.8965 2.68078 6.66162 -30.7855 11.5698 0.853169 3.34285 -5.84101 -14.694 -5.91889 13.9898 -14.4156 -2.72941 
